<svg width="37" height="33" viewBox="0 0 37 33" fill="none" xmlns="http://www.w3.org/2000/svg">
<path d="M5.17969 19.98H36.2596V25.16V31.08H5.17969V19.98Z" fill="#8E8E8E"/>
<path d="M34.2028 32.1779H7.30939C5.76726 32.1779 4.51172 31.0211 4.51172 29.5966V14.8438C4.51172 13.421 5.76548 12.2626 7.30939 12.2626H34.2028C35.7449 12.2626 37.0005 13.4193 37.0005 14.8438V29.5966C37.0005 31.0197 35.7452 32.1779 34.2028 32.1779ZM5.74624 20.1058V29.5953C5.74624 30.3907 6.44797 31.0381 7.31005 31.0381H34.2034C35.0655 31.0381 35.7673 30.3907 35.7673 29.5953V20.1058H5.74624ZM5.91587 18.9688H35.767V17.0848H5.91587V18.9688ZM5.74624 15.9466H35.7673V14.8439C35.7673 14.0485 35.0655 13.4011 34.2034 13.4011L7.31005 13.4009C6.44797 13.4009 5.74624 14.0483 5.74624 14.8437V15.9466Z" fill="#8E8E8E"/>
<path d="M18.7861 26.9803H8.22813C7.88733 26.9803 7.61133 26.7256 7.61133 26.4112C7.61133 26.0968 7.88733 25.8421 8.22813 25.8421H18.7861C19.1269 25.8421 19.4029 26.0968 19.4029 26.4112C19.4029 26.7256 19.1254 26.9803 18.7861 26.9803Z" fill="#2F2F2F"/>
<path d="M8.99932 28.9725H8.22813C7.88733 28.9725 7.61133 28.7178 7.61133 28.4034C7.61133 28.089 7.88733 27.8343 8.22813 27.8343H8.99932C9.34012 27.8343 9.61612 28.089 9.61612 28.4034C9.61638 28.7176 9.33858 28.9725 8.99932 28.9725Z" fill="#2F2F2F"/>
<path d="M16.2109 28.9725H12.6051C12.2643 28.9725 11.9883 28.7178 11.9883 28.4034C11.9883 28.089 12.2643 27.8343 12.6051 27.8343H16.2109C16.5517 27.8343 16.8277 28.089 16.8277 28.4034C16.8277 28.7176 16.5517 28.9725 16.2109 28.9725Z" fill="#2F2F2F"/>
<path d="M18.7845 28.9725H18.0133C17.6725 28.9725 17.3965 28.7178 17.3965 28.4034C17.3965 28.089 17.6725 27.8343 18.0133 27.8343H18.7845C19.1253 27.8343 19.4013 28.089 19.4013 28.4034C19.4013 28.7176 19.1237 28.9725 18.7845 28.9725Z" fill="#2F2F2F"/>
<path d="M5.1331 24.0745C4.87259 24.0745 4.62886 23.9208 4.54547 23.6788L0.131846 10.8927C-0.0932872 10.2366 -0.0284878 9.53795 0.313865 8.92477C0.657764 8.31135 1.23919 7.85899 1.95025 7.64988L27.574 0.121026C28.2881 -0.0852643 29.0454 -0.0269045 29.7068 0.288965C30.3717 0.606261 30.862 1.14131 31.0886 1.79876L34.833 12.6487C34.9363 12.9488 34.7574 13.269 34.4321 13.3645C34.1052 13.4584 33.7598 13.2947 33.6563 12.9946L31.6421 7.15912L10.4878 13.3744C10.1609 13.4683 9.81546 13.3032 9.71195 13.0045C9.60868 12.7043 9.7876 12.3842 10.1129 12.2887L31.1073 6.12216L30.4874 4.32654L2.04411 12.6829L5.72064 23.3316C5.82391 23.6318 5.645 23.9519 5.31968 24.0474C5.25798 24.0658 5.19472 24.0743 5.13302 24.0743L5.1331 24.0745ZM28.4223 1.13847C28.2636 1.13847 28.1032 1.16134 27.9473 1.20684L2.32356 8.73569C1.9257 8.85242 1.60167 9.10563 1.40907 9.44723C1.21621 9.79025 1.18084 10.1814 1.30735 10.5456L1.66984 11.5971L30.2751 3.19315L29.9126 2.1431C29.7861 1.77601 29.5116 1.47705 29.1414 1.29935C28.915 1.19263 28.6682 1.13856 28.4229 1.13856L28.4223 1.13847Z" fill="#8E8E8E"/>
<path d="M13.2863 12.4664L31.7837 6.53786L34.0398 12.58L16.9923 12.4868L13.2863 12.4664Z" fill="#8E8E8E"/>
<path d="M2.48047 14.614L4.84974 13.8846L4.73693 20.4066L3.57361 18.165L2.48047 14.614Z" fill="#8E8E8E"/>
</svg>
