<svg width="25" height="54" viewBox="0 0 25 54" fill="none" xmlns="http://www.w3.org/2000/svg">
<path d="M4.25391 23.8835C4.25391 24.7057 4.93979 25.5671 5.79361 25.5671H10.3804V18.788C10.3804 16.0722 12.6654 13.8711 15.4859 13.8711C18.3059 13.8711 20.5914 16.0717 20.5914 18.788L20.591 25.5671H23.1273C23.9812 25.5671 24.6751 24.7057 24.6751 23.8835V0H4.25435L4.25391 23.8835Z" fill="white"/>
<path d="M18.5481 25.972V18.7879C18.5481 17.1573 17.1759 15.8379 15.4849 15.8379C13.7939 15.8379 12.4217 17.1573 12.4217 18.7879V25.9761C12.4217 28.3479 12.1623 30.6822 11.4413 32.9519C11.3332 33.2882 11.3003 33.654 11.2084 34.0158L11.2328 33.9586C9.22122 39.0622 7.23023 32.0943 6.95629 31.0716L8.69686 27.5335H5.79303C4.50243 27.5335 3.37724 26.7725 2.746 25.7852L0.936615 29.5414C0.6426 30.1571 0.57721 30.8238 0.752854 31.4786L3.87122 43.1396C4.49386 45.4718 4.80839 48.2766 4.80839 50.6837C4.80839 51.7949 5.74171 53.1007 6.89346 53.1007H15.7054C18.5644 53.1007 20.8844 47.2615 20.8844 40.5747C20.8844 37.8704 20.3943 35.1702 19.7511 33.1585C19.0345 30.9102 18.5482 28.3224 18.5482 25.972L18.5481 25.972Z" fill="white"/>
</svg>
