<svg width="59" height="59" viewBox="0 0 59 59" fill="none" xmlns="http://www.w3.org/2000/svg">
<path fill-rule="evenodd" clip-rule="evenodd" d="M4.10938 17.487H54.8587C57.1317 17.487 58.9997 19.3162 58.9997 21.5795V28.648H38.8241C37.7654 28.648 36.8934 29.485 36.8934 30.539V45.9477C36.8934 46.9708 37.7654 47.8387 38.8241 47.8387H58.9997V54.8763C58.9997 57.1395 57.1317 58.9997 54.8587 58.9997H4.10938C1.86742 58.9997 0 57.1396 0 54.8763V21.5776C0 19.3144 1.86801 17.4851 4.10938 17.4851V17.487Z" fill="#414141"/>
<path fill-rule="evenodd" clip-rule="evenodd" d="M39.6665 30.5781H59.001V45.9252H39.6665C39.1995 45.9252 38.8262 45.5222 38.8262 45.0882V31.4156C38.8262 30.9507 39.1996 30.5786 39.6665 30.5786V30.5781ZM48.9136 33.2443C51.6847 33.2443 53.9261 35.4766 53.9261 38.2357C53.9261 40.9948 51.6841 43.258 48.9136 43.258C46.1116 43.258 43.8696 40.9948 43.8696 38.2357C43.8696 35.4766 46.1116 33.2443 48.9136 33.2443Z" fill="#414141"/>
<path fill-rule="evenodd" clip-rule="evenodd" d="M5.66797 15.7502L28.2097 0L32.9108 6.69683L42.4382 0.0622907L53.5223 15.7509H37.5185L33.0972 9.36437L23.9748 15.7509H15.2258L20.7059 11.9372L18.8689 9.33271L9.68383 15.7508L5.66797 15.7502ZM35.9314 7.41018L41.5981 3.442L45.272 8.65029L39.6053 12.6185L35.9314 7.41018ZM21.7029 7.34834L27.3695 3.38017L30.3582 7.59692L24.6916 11.5651L21.7029 7.34834Z" fill="#414141"/>
</svg>
