<svg width="38" height="25" viewBox="0 0 38 25" fill="none" xmlns="http://www.w3.org/2000/svg">
<path fill-rule="evenodd" clip-rule="evenodd" d="M12.9476 0H13.5435H36.5614H38V1.38889V23.6111V25H36.5614H13.5435H12.9476L12.5262 24.5932L1.01726 13.4821L0 12.5L1.01726 11.5179L12.5262 0.406796L12.9476 0ZM14.1394 2.77778L4.06903 12.5L14.1394 22.2222H35.1228V2.77778H14.1394ZM19.2979 6.36913L20.3152 7.35123L23.6138 10.5358L26.9124 7.35124L27.9297 6.36915L29.9642 8.33333L28.9469 9.31543L25.6483 12.5L28.9469 15.6846L29.9642 16.6667L27.9297 18.6308L26.9124 17.6487L23.6138 14.4642L20.3152 17.6488L19.2979 18.6309L17.2634 16.6667L18.2807 15.6846L21.5793 12.5L18.2807 9.31541L17.2634 8.33332L19.2979 6.36913Z" fill="black"/>
</svg>
