<svg width="36" height="37" viewBox="0 0 36 37" fill="none" xmlns="http://www.w3.org/2000/svg">
<path d="M22.161 36.1693C22.161 36.0789 22.0706 36.0789 21.9349 36.0789C20.8043 35.8075 20.1259 35.0839 19.9902 33.908C18.6334 27.1241 17.4123 20.3854 16.0555 13.5111C15.8294 12.6518 15.7842 11.702 15.558 10.9332C15.4676 10.6618 15.4676 10.3 15.0605 10.0739C15.7842 9.35026 16.4173 8.62664 17.0053 7.90302C17.5028 7.40554 17.5028 7.40554 18.0002 7.81257C18.6334 8.31006 19.2213 8.80755 19.8545 9.39549C20.3068 9.66684 20.5781 9.66684 20.9852 9.30503C21.4374 8.80755 21.9349 8.31006 22.3419 7.72212C22.8394 7.08896 23.3369 7.08895 23.9249 7.63166C26.0957 9.48593 28.357 11.4307 30.5279 13.4206C31.0254 13.9181 31.161 14.4156 30.6183 15.0035C30.3922 15.2297 30.347 15.4558 30.1208 15.6367C29.8495 15.908 29.8495 16.2699 29.8947 16.5864C31.0254 19.4357 32.2465 22.2397 33.4223 25.1794C34.2816 27.1241 35.0505 29.1141 35.9098 31.0588C35.9098 31.1492 35.9098 31.2849 36.0002 31.3301C36.0002 31.4206 36.0002 31.6015 36.0002 31.7824C35.9098 32.0085 35.7289 32.2347 35.5027 32.4156C34.3721 32.8678 33.3319 33.3653 32.2012 33.7723C31.749 33.9985 31.3419 33.7723 31.2063 33.3201C30.9349 32.8226 30.7088 32.6869 30.0756 33.0487C27.5882 34.0437 25.1912 35.3552 22.7038 36.1241C22.6585 36.1693 22.4324 36.1693 22.161 36.1693ZM23.0203 33.9985C23.2465 33.9985 23.4726 33.908 23.744 33.7723C24.6033 33.3201 25.553 33.0487 26.3218 32.6417C26.548 32.5512 26.548 32.4156 26.548 32.1894C25.5982 29.3854 24.6937 26.6718 23.744 23.8678C23.4726 23.0085 22.8847 22.2849 22.161 21.697C21.6636 21.2447 21.2113 20.9734 20.7138 20.5663C20.4877 20.4759 20.4877 20.4759 20.4425 20.6568C20.1711 21.2899 19.9902 21.8779 20.1711 22.511C20.2616 23.506 20.4425 24.5914 20.6234 25.5864C20.8947 27.9382 21.347 30.2447 21.6183 32.5965C21.6636 33.501 22.2063 33.9985 23.0203 33.9985ZM21.4374 19.6166C21.5279 19.6166 21.5279 19.707 21.5279 19.707C22.161 20.1593 22.6585 20.6568 23.3369 21.1543C24.2867 22.0136 24.6937 23.0085 25.146 24.1844C26.0053 26.6718 26.7741 29.2497 27.6334 31.6919C27.7239 31.9181 27.7239 31.9633 27.9048 31.9181C28.4022 31.6919 28.8997 31.4206 29.5329 31.1944C30.0304 30.9683 30.1661 30.697 30.0304 30.1995C29.0354 27.3502 28.0857 24.3201 27.0002 21.3804C26.3671 19.5713 25.0555 18.8025 23.2917 19.0739C22.6585 19.1191 22.0706 19.1643 21.4374 19.6166ZM18.4073 14.099C17.955 14.099 17.6837 14.3703 17.6837 14.8226C17.6837 15.0487 17.7741 15.094 17.7741 15.3201C18.0455 16.4507 18.2716 17.6266 18.6334 18.7573C18.7239 19.2095 19.0857 19.3904 19.4927 19.3904C19.7641 19.3 20.1259 18.9382 19.9902 18.6668C19.7188 17.31 19.357 16.0889 19.0404 14.7322C18.9048 14.3251 18.7239 14.099 18.4073 14.099ZM16.7791 11.5211C16.8696 11.9734 17.0053 12.4709 17.2314 12.9683C17.3219 13.2397 17.6837 13.4206 17.955 13.2397C18.2264 13.1492 18.4525 12.7874 18.4073 12.5161C18.3168 12.0186 18.1812 11.5211 17.955 11.0688C17.8646 10.7975 17.5028 10.6166 17.2314 10.6166C17.0053 10.7975 16.7791 11.0688 16.7791 11.5211Z" fill="#8E8E8E"/>
<path d="M0 2.34024C0.22613 1.88798 0.271359 1.39049 0.497489 0.893006C0.72362 0.169389 1.2211 -0.101965 1.94472 0.0337132C5.3819 1.02869 8.6834 1.97843 12.1206 3.06386C12.3919 3.15431 12.6181 3.28999 12.8442 3.51612C14.0653 4.51109 15.196 5.46084 16.5075 6.54626C16.7336 6.63672 16.7336 6.77239 16.5075 6.99852C15.7839 7.72214 15.0603 8.44576 14.4271 9.30506C14.201 9.53119 14.201 9.53119 13.9749 9.30506C13.1156 8.58144 12.3467 7.85782 11.4874 7.22466C11.0352 6.9533 10.7638 6.72717 10.2663 6.59149C7.23618 5.64175 4.25125 4.78245 1.17588 3.87793C0.678394 3.78748 0.316585 3.60657 0.0452288 3.01863C2.75971e-06 2.61159 0 2.43069 0 2.34024Z" fill="#8E8E8E"/>
<path d="M0 15.9534C0.271356 14.9584 0.859301 13.873 1.44724 12.878C1.94473 12.0187 2.4422 11.2499 3.07537 10.3906C3.16582 10.3001 3.16582 10.1645 3.34673 10.3906C4.56783 11.9735 5.69849 13.6016 6.37688 15.5464C6.87437 17.1745 5.92462 18.9836 4.29648 19.481C2.48743 19.9785 0.633159 19.0288 0.135673 17.4006C0.135673 17.3102 0.135681 17.1745 0.0452288 17.1293C2.75971e-06 16.677 0 16.3152 0 15.9534Z" fill="#8E8E8E"/>
</svg>
