<svg width="33" height="37" viewBox="0 0 33 37" fill="none" xmlns="http://www.w3.org/2000/svg">
<path fill-rule="evenodd" clip-rule="evenodd" d="M0.632763 11.9308C0 13.3066 0 14.8717 0 18.002V27.7781C0 32.1253 0 34.2989 1.35051 35.6495C2.70103 37 4.87465 37 9.22188 37H9.37462V25.4727C9.37462 23.6471 10.8545 22.1672 12.6801 22.1672H19.5965C21.4221 22.1672 22.902 23.6471 22.902 25.4727V37H23.0547C27.402 37 29.5756 37 30.9261 35.6495C32.2766 34.2989 32.2766 32.1253 32.2766 27.7781V18.002C32.2766 14.8717 32.2766 13.3066 31.6438 11.9308C31.0111 10.5551 29.8227 9.53647 27.4461 7.49932L25.1406 5.5232C20.8448 1.84107 18.6968 0 16.1383 0C13.5798 0 11.4318 1.84107 7.13601 5.5232L4.83054 7.49932C2.45386 9.53647 1.26553 10.5551 0.632763 11.9308ZM20.902 37V25.4727C20.902 24.7517 20.3175 24.1672 19.5965 24.1672H12.6801C11.9591 24.1672 11.3746 24.7517 11.3746 25.4727V37H20.902Z" fill="#8E8E8E"/>
</svg>
