<svg width="80" height="80" viewBox="0 0 80 80" fill="none" xmlns="http://www.w3.org/2000/svg">
<path d="M49.0008 79.9745C49.0008 79.7745 48.8008 79.7745 48.5008 79.7745C46.0008 79.1745 44.5008 77.5745 44.2008 74.9745C41.2008 59.9745 38.5008 45.0745 35.5008 29.8745C35.0008 27.9745 34.9008 25.8745 34.4008 24.1745C34.2008 23.5745 34.2008 22.7745 33.3008 22.2745C34.9008 20.6745 36.3008 19.0745 37.6008 17.4745C38.7008 16.3745 38.7008 16.3745 39.8008 17.2745C41.2008 18.3745 42.5008 19.4745 43.9008 20.7745C44.9008 21.3745 45.5008 21.3745 46.4008 20.5745C47.4008 19.4745 48.5008 18.3745 49.4008 17.0745C50.5008 15.6745 51.6008 15.6745 52.9008 16.8745C57.7008 20.9745 62.7008 25.2745 67.5008 29.6745C68.6008 30.7745 68.9008 31.8745 67.7008 33.1745C67.2008 33.6745 67.1008 34.1745 66.6008 34.5745C66.0008 35.1745 66.0008 35.9745 66.1008 36.6745C68.6008 42.9745 71.3008 49.1745 73.9008 55.6745C75.8008 59.9745 77.5008 64.3745 79.4008 68.6745C79.4008 68.8745 79.4008 69.1745 79.6008 69.2745C79.6008 69.4745 79.6008 69.8745 79.6008 70.2745C79.4008 70.7745 79.0008 71.2745 78.5008 71.6745C76.0008 72.6745 73.7008 73.7745 71.2008 74.6745C70.2008 75.1745 69.3008 74.6745 69.0008 73.6745C68.4008 72.5745 67.9008 72.2745 66.5008 73.0745C61.0008 75.2745 55.7008 78.1745 50.2008 79.8745C50.1008 79.9745 49.6008 79.9745 49.0008 79.9745ZM50.9008 75.1745C51.4008 75.1745 51.9008 74.9745 52.5008 74.6745C54.4008 73.6745 56.5008 73.0745 58.2008 72.1745C58.7008 71.9745 58.7008 71.6745 58.7008 71.1745C56.6008 64.9745 54.6008 58.9745 52.5008 52.7745C51.9008 50.8745 50.6008 49.2745 49.0008 47.9745C47.9008 46.9745 46.9008 46.3745 45.8008 45.4745C45.3008 45.2745 45.3008 45.2745 45.2008 45.6745C44.6008 47.0745 44.2008 48.3745 44.6008 49.7745C44.8008 51.9745 45.2008 54.3745 45.6008 56.5745C46.2008 61.7745 47.2008 66.8745 47.8008 72.0745C47.9008 74.0745 49.1008 75.1745 50.9008 75.1745ZM47.4008 43.3745C47.6008 43.3745 47.6008 43.5745 47.6008 43.5745C49.0008 44.5745 50.1008 45.6745 51.6008 46.7745C53.7008 48.6745 54.6008 50.8745 55.6008 53.4745C57.5008 58.9745 59.2008 64.6745 61.1008 70.0745C61.3008 70.5745 61.3008 70.6745 61.7008 70.5745C62.8008 70.0745 63.9008 69.4745 65.3008 68.9745C66.4008 68.4745 66.7008 67.8745 66.4008 66.7745C64.2008 60.4745 62.1008 53.7745 59.7008 47.2745C58.3008 43.2745 55.4008 41.5745 51.5008 42.1745C50.1008 42.2745 48.8008 42.3745 47.4008 43.3745ZM40.7008 31.1745C39.7008 31.1745 39.1008 31.7745 39.1008 32.7745C39.1008 33.2745 39.3008 33.3745 39.3008 33.8745C39.9008 36.3745 40.4008 38.9745 41.2008 41.4745C41.4008 42.4745 42.2008 42.8745 43.1008 42.8745C43.7008 42.6745 44.5008 41.8745 44.2008 41.2745C43.6008 38.2745 42.8008 35.5745 42.1008 32.5745C41.8008 31.6745 41.4008 31.1745 40.7008 31.1745ZM37.1008 25.4745C37.3008 26.4745 37.6008 27.5745 38.1008 28.6745C38.3008 29.2745 39.1008 29.6745 39.7008 29.2745C40.3008 29.0745 40.8008 28.2745 40.7008 27.6745C40.5008 26.5745 40.2008 25.4745 39.7008 24.4745C39.5008 23.8745 38.7008 23.4745 38.1008 23.4745C37.6008 23.8745 37.1008 24.4745 37.1008 25.4745Z" fill="white"/>
<path d="M0 5.17453C0.5 4.17453 0.600006 3.07454 1.10001 1.97454C1.60001 0.374538 2.69999 -0.225456 4.29999 0.0745438C11.9 2.27454 19.2 4.37454 26.8 6.77454C27.4 6.97454 27.9 7.27454 28.4 7.77454C31.1 9.97454 33.6 12.0745 36.5 14.4745C37 14.6745 37 14.9745 36.5 15.4745C34.9 17.0745 33.3 18.6745 31.9 20.5745C31.4 21.0745 31.4 21.0745 30.9 20.5745C29 18.9745 27.3 17.3745 25.4 15.9745C24.4 15.3745 23.8 14.8745 22.7 14.5745C16 12.4745 9.40001 10.5745 2.60001 8.57454C1.50001 8.37454 0.700006 7.97453 0.100006 6.67453C6.10203e-06 5.77453 0 5.37453 0 5.17453Z" fill="white"/>
<path d="M0 35.2748C0.6 33.0748 1.90001 30.6748 3.20001 28.4748C4.30001 26.5748 5.39999 24.8748 6.79999 22.9748C6.99999 22.7748 6.99999 22.4748 7.39999 22.9748C10.1 26.4748 12.6 30.0748 14.1 34.3748C15.2 37.9748 13.1 41.9748 9.5 43.0748C5.5 44.1748 1.39999 42.0748 0.299988 38.4748C0.299988 38.2748 0.300006 37.9748 0.100006 37.8748C6.10203e-06 36.8748 0 36.0748 0 35.2748Z" fill="white"/>
</svg>
