<svg width="470" height="332" viewBox="0 0 470 332" fill="none" xmlns="http://www.w3.org/2000/svg">
<path d="M271.543 225.977V91.8462H324.462C334.635 91.8462 343.302 93.7892 350.462 97.6751C357.623 101.517 363.081 106.866 366.836 113.721C370.634 120.532 372.534 128.391 372.534 137.299C372.534 146.206 370.613 154.065 366.77 160.876C362.928 167.687 357.361 172.992 350.069 176.791C342.822 180.59 334.045 182.489 323.741 182.489H290.012V159.763H319.157C324.614 159.763 329.112 158.824 332.648 156.947C336.229 155.025 338.892 152.384 340.638 149.022C342.429 145.616 343.324 141.708 343.324 137.299C343.324 132.845 342.429 128.959 340.638 125.641C338.892 122.279 336.229 119.681 332.648 117.847C329.068 115.97 324.527 115.031 319.026 115.031H299.902V225.977H271.543Z" fill="#585858"/>
<path d="M223.455 130.422C222.931 125.138 220.682 121.034 216.709 118.109C212.736 115.183 207.343 113.721 200.532 113.721C195.904 113.721 191.996 114.376 188.809 115.686C185.621 116.952 183.176 118.72 181.474 120.991C179.814 123.261 178.985 125.837 178.985 128.719C178.897 131.12 179.4 133.216 180.491 135.006C181.626 136.796 183.176 138.346 185.141 139.656C187.106 140.922 189.376 142.036 191.952 142.996C194.529 143.913 197.279 144.699 200.205 145.354L212.255 148.236C218.106 149.546 223.477 151.292 228.367 153.475C233.257 155.658 237.492 158.344 241.073 161.531C244.653 164.718 247.425 168.473 249.39 172.796C251.399 177.118 252.425 182.074 252.468 187.663C252.425 195.871 250.329 202.988 246.181 209.014C242.077 214.995 236.139 219.645 228.367 222.964C220.639 226.238 211.317 227.876 200.401 227.876C189.573 227.876 180.142 226.216 172.108 222.898C164.118 219.58 157.874 214.668 153.377 208.162C148.923 201.613 146.587 193.514 146.369 183.864H173.811C174.116 188.361 175.405 192.116 177.675 195.129C179.989 198.098 183.067 200.347 186.91 201.875C190.795 203.359 195.183 204.102 200.074 204.102C204.877 204.102 209.046 203.403 212.583 202.006C216.163 200.609 218.936 198.666 220.901 196.177C222.865 193.688 223.848 190.828 223.848 187.597C223.848 184.585 222.953 182.052 221.163 180C219.416 177.948 216.84 176.201 213.434 174.761C210.072 173.32 205.946 172.01 201.056 170.831L186.451 167.163C175.143 164.413 166.214 160.112 159.664 154.261C153.115 148.41 149.862 140.529 149.906 130.618C149.862 122.497 152.023 115.402 156.39 109.333C160.8 103.264 166.847 98.5263 174.531 95.1207C182.216 91.715 190.948 90.0122 200.729 90.0122C210.684 90.0122 219.372 91.715 226.795 95.1207C234.261 98.5263 240.068 103.264 244.216 109.333C248.364 115.402 250.504 122.431 250.635 130.422H223.455Z" fill="url(#paint0_linear_302_739)"/>
<path d="M127.361 91.8462V225.977H99.002V91.8462H127.361Z" fill="url(#paint1_linear_302_739)"/>
<path d="M405.749 109.38C407.101 84.6882 388.168 63.5748 363.476 62.2372L362.259 84.5889C374.608 85.2614 384.068 95.8106 383.398 108.163L405.749 109.38Z" fill="#585858"/>
<path d="M450.472 111.813C453.162 62.4291 415.294 20.1997 365.91 17.5104L364.699 39.8743C401.736 41.8888 430.129 73.5515 428.109 110.588L450.472 111.813Z" fill="#585858"/>
<path d="M9.552 320H4.224V286.4H9.552V320ZM42.1493 291.104L38.0693 293.84C37.2693 292.688 36.1173 291.792 34.6133 291.152C33.1413 290.48 31.5253 290.128 29.7653 290.096C27.4613 290.096 25.5893 290.56 24.1493 291.488C22.7093 292.384 21.9893 293.616 21.9893 295.184C21.9893 296.656 22.6773 297.728 24.0533 298.4C25.4613 299.072 27.4933 299.6 30.1493 299.984C32.1333 300.272 33.8293 300.608 35.2373 300.992C36.6453 301.376 38.0373 301.952 39.4133 302.72C40.7893 303.456 41.8293 304.48 42.5333 305.792C43.2693 307.072 43.6373 308.608 43.6373 310.4C43.6373 312.8 42.9333 314.8 41.5253 316.4C40.1493 318 38.4533 319.136 36.4373 319.808C34.4533 320.448 32.2133 320.768 29.7173 320.768C22.8373 320.768 18.0213 318.224 15.2693 313.136L19.3013 310.448C21.4773 314.128 24.9653 315.968 29.7653 315.968C31.2373 315.968 32.5813 315.808 33.7973 315.488C35.0133 315.168 36.0533 314.576 36.9173 313.712C37.8133 312.816 38.2613 311.712 38.2613 310.4C38.2613 308.704 37.4933 307.456 35.9573 306.656C34.4533 305.824 32.3573 305.232 29.6693 304.88C28.1333 304.688 26.8053 304.464 25.6853 304.208C24.5973 303.952 23.4453 303.584 22.2293 303.104C21.0133 302.624 20.0213 302.048 19.2533 301.376C18.5173 300.704 17.8933 299.84 17.3813 298.784C16.9013 297.696 16.6613 296.464 16.6613 295.088C16.6613 293.424 17.0453 291.952 17.8133 290.672C18.5813 289.392 19.6053 288.384 20.8853 287.648C22.1653 286.912 23.5413 286.368 25.0133 286.016C26.4853 285.632 28.0213 285.44 29.6213 285.44C35.6053 285.44 39.7813 287.328 42.1493 291.104ZM77.6599 288.8H65.5159V306.032H77.6599C79.1959 306.032 80.5559 305.712 81.7399 305.072C82.9559 304.432 83.8679 303.616 84.4759 302.624C85.1159 301.6 85.5799 300.48 85.8679 299.264C86.1559 298.048 86.1559 296.832 85.8679 295.616C85.5799 294.368 85.1159 293.248 84.4759 292.256C83.8679 291.232 82.9559 290.4 81.7399 289.76C80.5559 289.12 79.1959 288.8 77.6599 288.8ZM77.6599 308.384H65.5159V320H62.9239V286.4H77.6599C79.4199 286.4 81.0039 286.72 82.4119 287.36C83.8519 287.968 85.0039 288.8 85.8679 289.856C86.7639 290.88 87.4359 292.048 87.8839 293.36C88.3639 294.672 88.6039 296.016 88.6039 297.392C88.6039 298.768 88.3639 300.112 87.8839 301.424C87.4359 302.736 86.7639 303.92 85.8679 304.976C85.0039 306 83.8519 306.832 82.4119 307.472C81.0039 308.08 79.4199 308.384 77.6599 308.384ZM113.72 296.288H116.072V320H113.72V314.96C111.48 318.576 108.248 320.384 104.024 320.384C100.664 320.384 97.8159 319.232 95.4799 316.928C93.1439 314.624 91.9759 311.696 91.9759 308.144C91.9759 304.592 93.1279 301.68 95.4319 299.408C97.7679 297.136 100.632 296 104.024 296C106.04 296 107.912 296.464 109.64 297.392C111.4 298.32 112.76 299.68 113.72 301.472V296.288ZM104.024 298.256C101.272 298.256 98.9679 299.184 97.1119 301.04C95.2559 302.864 94.3279 305.232 94.3279 308.144C94.3279 311.056 95.2559 313.44 97.1119 315.296C98.9679 317.152 101.272 318.08 104.024 318.08C105.848 318.08 107.464 317.712 108.872 316.976C110.28 316.24 111.352 315.296 112.088 314.144C112.824 312.992 113.368 311.712 113.72 310.304C114.072 308.896 114.072 307.488 113.72 306.08C113.368 304.64 112.824 303.344 112.088 302.192C111.352 301.04 110.28 300.096 108.872 299.36C107.464 298.624 105.848 298.256 104.024 298.256ZM141.361 296.288H143.905L128.833 331.472H126.337L131.329 319.712L121.825 296.288H124.369L129.889 310.304L132.673 317.168L135.409 310.256L141.361 296.288ZM186.923 320H184.571V305.792C184.571 303.52 183.867 301.664 182.459 300.224C181.051 298.752 179.227 298.016 176.987 298.016C174.747 298.016 172.907 298.768 171.467 300.272C170.059 301.744 169.355 303.632 169.355 305.936V320H167.003V305.936C167.003 303.632 166.283 301.744 164.843 300.272C163.435 298.8 161.611 298.064 159.371 298.064C157.131 298.064 155.307 298.8 153.899 300.272C152.491 301.744 151.787 303.632 151.787 305.936V320H149.435V296.288H151.643L151.691 300.224C153.227 297.28 155.803 295.808 159.419 295.808C161.403 295.808 163.195 296.288 164.795 297.248C166.427 298.208 167.563 299.68 168.203 301.664C168.907 299.808 170.059 298.368 171.659 297.344C173.291 296.32 175.067 295.808 176.987 295.808C179.899 295.808 182.283 296.736 184.139 298.592C185.995 300.448 186.923 302.848 186.923 305.792V320ZM204.852 320.384C201.428 320.384 198.564 319.264 196.26 317.024C193.956 314.784 192.804 311.824 192.804 308.144C192.804 304.624 193.972 301.712 196.308 299.408C198.644 297.072 201.492 295.904 204.852 295.904C208.5 295.904 211.46 297.04 213.732 299.312C216.036 301.584 216.98 304.896 216.564 309.248H195.204C195.428 311.936 196.452 314.08 198.276 315.68C200.132 317.28 202.324 318.08 204.852 318.08C206.484 318.08 208.1 317.76 209.7 317.12C211.3 316.48 212.532 315.6 213.396 314.48L215.076 315.824C213.956 317.296 212.468 318.432 210.612 319.232C208.756 320 206.836 320.384 204.852 320.384ZM195.204 307.184H214.452C214.42 304.304 213.54 302.064 211.812 300.464C210.084 298.864 207.764 298.064 204.852 298.064C202.324 298.064 200.148 298.88 198.324 300.512C196.5 302.144 195.46 304.368 195.204 307.184ZM222.56 296.288H224.864V300.512C226.56 297.472 229.376 295.92 233.312 295.856C236.512 295.856 239.088 296.8 241.04 298.688C243.024 300.544 244.016 303.088 244.016 306.32V320H241.664V306.368C241.664 303.712 240.912 301.68 239.408 300.272C237.904 298.832 235.84 298.128 233.216 298.16C230.784 298.192 228.784 299.024 227.216 300.656C225.68 302.288 224.912 304.336 224.912 306.8V320H222.56V296.288ZM253.327 289.376L255.631 289.136V296.288H263.695V298.256H255.631V312.704C255.631 314.528 255.919 315.904 256.495 316.832C257.103 317.728 258.271 318.176 259.999 318.176C261.087 318.176 262.303 317.856 263.647 317.216L264.463 319.136C262.799 319.936 261.311 320.336 259.999 320.336C257.599 320.336 255.887 319.68 254.863 318.368C253.839 317.056 253.327 315.168 253.327 312.704V298.256H248.287V296.288H253.327V289.376ZM285.726 299.072L284.286 300.608C282.398 298.944 279.934 298.112 276.894 298.112C274.878 298.08 273.166 298.448 271.758 299.216C270.382 299.952 269.71 301.04 269.742 302.48C269.742 302.992 269.838 303.456 270.03 303.872C270.254 304.256 270.59 304.608 271.038 304.928C271.486 305.216 271.87 305.456 272.19 305.648C272.542 305.808 273.086 305.984 273.822 306.176C274.558 306.336 275.054 306.448 275.31 306.512C275.598 306.576 276.142 306.672 276.942 306.8C280.206 307.344 282.414 307.92 283.566 308.528C285.774 309.616 286.83 311.36 286.734 313.76C286.702 315.392 286.142 316.736 285.054 317.792C283.966 318.816 282.734 319.504 281.358 319.856C280.014 320.208 278.558 320.384 276.99 320.384C274.814 320.384 272.782 319.984 270.894 319.184C269.038 318.352 267.614 317.168 266.622 315.632L268.35 314.096C269.278 315.44 270.526 316.448 272.094 317.12C273.694 317.792 275.342 318.128 277.038 318.128C278.19 318.128 279.262 318.032 280.254 317.84C281.246 317.616 282.174 317.152 283.038 316.448C283.934 315.712 284.398 314.768 284.43 313.616C284.462 312.944 284.318 312.368 283.998 311.888C283.678 311.376 283.31 310.976 282.894 310.688C282.51 310.368 281.902 310.096 281.07 309.872C280.27 309.616 279.598 309.44 279.054 309.344C278.51 309.216 277.726 309.072 276.702 308.912C275.518 308.72 274.59 308.56 273.918 308.432C273.246 308.272 272.446 308.032 271.518 307.712C270.59 307.392 269.87 307.024 269.358 306.608C268.878 306.192 268.446 305.648 268.062 304.976C267.678 304.272 267.486 303.456 267.486 302.528C267.454 300.352 268.35 298.704 270.174 297.584C272.03 296.432 274.27 295.872 276.894 295.904C280.542 295.904 283.486 296.96 285.726 299.072ZM329.676 291.632L327.564 292.88C326.444 291.088 325.036 289.888 323.34 289.28C321.676 288.672 319.692 288.352 317.388 288.32C315.852 288.32 314.364 288.496 312.924 288.848C311.516 289.2 310.204 289.92 308.988 291.008C307.804 292.096 307.212 293.472 307.212 295.136C307.212 295.968 307.404 296.704 307.788 297.344C308.172 297.984 308.62 298.512 309.132 298.928C309.676 299.312 310.444 299.68 311.436 300.032C312.46 300.384 313.372 300.656 314.172 300.848C315.004 301.008 316.108 301.216 317.484 301.472C321.676 302.272 324.54 303.056 326.076 303.824C329.148 305.328 330.684 307.76 330.684 311.12C330.684 312.912 330.252 314.464 329.388 315.776C328.556 317.056 327.452 318.032 326.076 318.704C324.7 319.344 323.292 319.808 321.852 320.096C320.444 320.384 318.956 320.528 317.388 320.528C314.54 320.528 311.836 319.92 309.276 318.704C306.716 317.456 304.828 315.632 303.612 313.232L305.916 312.08C306.876 314 308.46 315.504 310.668 316.592C312.908 317.648 315.148 318.176 317.388 318.176C318.572 318.176 319.724 318.08 320.844 317.888C321.964 317.696 323.1 317.36 324.252 316.88C325.404 316.4 326.332 315.664 327.036 314.672C327.74 313.68 328.092 312.48 328.092 311.072C328.092 310.272 327.964 309.552 327.708 308.912C327.452 308.24 327.02 307.664 326.412 307.184C325.836 306.704 325.26 306.304 324.684 305.984C324.14 305.664 323.356 305.36 322.332 305.072C321.308 304.784 320.476 304.576 319.836 304.448C319.196 304.288 318.268 304.096 317.052 303.872C315.708 303.616 314.668 303.408 313.932 303.248C313.228 303.088 312.3 302.848 311.148 302.528C309.996 302.176 309.1 301.808 308.46 301.424C307.852 301.04 307.212 300.56 306.54 299.984C305.868 299.408 305.372 298.72 305.052 297.92C304.764 297.12 304.62 296.224 304.62 295.232C304.588 293.536 304.956 292.064 305.724 290.816C306.524 289.536 307.58 288.56 308.892 287.888C310.236 287.216 311.612 286.72 313.02 286.4C314.428 286.08 315.884 285.92 317.388 285.92C320.172 285.92 322.524 286.304 324.444 287.072C326.396 287.84 328.14 289.36 329.676 291.632ZM347.399 320.384C343.975 320.384 341.111 319.264 338.807 317.024C336.503 314.784 335.351 311.824 335.351 308.144C335.351 304.624 336.519 301.712 338.855 299.408C341.191 297.072 344.039 295.904 347.399 295.904C351.047 295.904 354.007 297.04 356.279 299.312C358.583 301.584 359.527 304.896 359.111 309.248H337.751C337.975 311.936 338.999 314.08 340.823 315.68C342.679 317.28 344.871 318.08 347.399 318.08C349.031 318.08 350.647 317.76 352.247 317.12C353.847 316.48 355.079 315.6 355.943 314.48L357.623 315.824C356.503 317.296 355.015 318.432 353.159 319.232C351.303 320 349.383 320.384 347.399 320.384ZM337.751 307.184H356.999C356.967 304.304 356.087 302.064 354.359 300.464C352.631 298.864 350.311 298.064 347.399 298.064C344.871 298.064 342.695 298.88 340.871 300.512C339.047 302.144 338.007 304.368 337.751 307.184ZM365.107 296.288H367.315L367.411 300.512C368.115 299.008 369.187 297.888 370.627 297.152C372.067 296.416 373.619 296.048 375.283 296.048C377.075 295.984 378.771 296.448 380.371 297.44L379.315 299.36C378.131 298.624 376.787 298.256 375.283 298.256C373.075 298.288 371.219 299.072 369.715 300.608C368.211 302.144 367.459 304 367.459 306.176V320H365.107V296.288ZM392.29 320L382.354 296.288H384.946L393.586 317.264L402.226 296.288H404.818L394.882 320H392.29ZM412.834 296.192V320H410.482V296.192H412.834ZM409.81 288.56C409.81 289.136 410.002 289.6 410.386 289.952C410.802 290.272 411.234 290.432 411.682 290.432C412.162 290.432 412.594 290.272 412.978 289.952C413.394 289.6 413.602 289.136 413.602 288.56C413.602 287.984 413.394 287.536 412.978 287.216C412.594 286.864 412.162 286.688 411.682 286.688C411.234 286.688 410.802 286.864 410.386 287.216C410.002 287.536 409.81 287.984 409.81 288.56ZM438.271 315.248L439.855 316.832C437.487 319.2 434.607 320.384 431.215 320.384C427.791 320.384 424.895 319.264 422.527 317.024C420.191 314.752 419.023 311.792 419.023 308.144C419.023 304.464 420.175 301.504 422.479 299.264C424.815 297.024 427.727 295.904 431.215 295.904C434.543 295.904 437.423 297.088 439.855 299.456L438.367 300.944C436.479 299.056 434.095 298.112 431.215 298.112C428.431 298.112 426.079 299.024 424.159 300.848C422.271 302.64 421.327 305.072 421.327 308.144C421.327 311.216 422.271 313.664 424.159 315.488C426.079 317.28 428.431 318.176 431.215 318.176C433.967 318.176 436.319 317.2 438.271 315.248ZM455.54 320.384C452.116 320.384 449.252 319.264 446.948 317.024C444.644 314.784 443.492 311.824 443.492 308.144C443.492 304.624 444.66 301.712 446.996 299.408C449.332 297.072 452.18 295.904 455.54 295.904C459.188 295.904 462.148 297.04 464.42 299.312C466.724 301.584 467.668 304.896 467.252 309.248H445.892C446.116 311.936 447.14 314.08 448.964 315.68C450.82 317.28 453.012 318.08 455.54 318.08C457.172 318.08 458.788 317.76 460.388 317.12C461.988 316.48 463.22 315.6 464.084 314.48L465.764 315.824C464.644 317.296 463.156 318.432 461.3 319.232C459.444 320 457.524 320.384 455.54 320.384ZM445.892 307.184H465.14C465.108 304.304 464.228 302.064 462.5 300.464C460.772 298.864 458.452 298.064 455.54 298.064C453.012 298.064 450.836 298.88 449.012 300.512C447.188 302.144 446.148 304.368 445.892 307.184Z" fill="black"/>
<defs>
<linearGradient id="paint0_linear_302_739" x1="233.519" y1="47.1206" x2="233.519" y2="270.564" gradientUnits="userSpaceOnUse">
<stop stop-color="#94ED2B"/>
<stop offset="1" stop-color="#325903"/>
</linearGradient>
<linearGradient id="paint1_linear_302_739" x1="233.519" y1="47.1207" x2="233.519" y2="270.564" gradientUnits="userSpaceOnUse">
<stop stop-color="#94ED2B"/>
<stop offset="1" stop-color="#325903"/>
</linearGradient>
</defs>
</svg>
