<svg width="16" height="20" viewBox="0 0 16 20" fill="none" xmlns="http://www.w3.org/2000/svg">
<path d="M8.24271 0.205461C9.58941 1.65318 11.393 3.61519 12.8745 5.71992C14.3559 7.82463 15.5549 10.0701 15.5549 12.2206C15.5549 13.5096 15.0779 15.3715 13.8675 17.0058C12.6571 18.6401 10.6477 19.9992 7.77745 19.9992C4.9072 19.9992 2.89784 18.6401 1.68743 17.0058C0.477018 15.3715 0 13.5096 0 12.2206C0 10.057 1.26242 7.82019 2.76377 5.71992C4.26513 3.61963 6.04749 1.65827 7.24275 0.233238C7.63083 -0.0867492 7.86705 -0.0594836 8.24271 0.205461ZM7.77051 1.67092C6.58707 3.0554 5.11692 4.71443 3.84706 6.49087C2.40934 8.50212 1.33328 10.6061 1.33328 12.2206C1.33328 13.1541 1.74511 14.8411 2.75683 16.2071C3.76855 17.5732 5.31459 18.6657 7.77745 18.6657C10.2403 18.6657 11.7864 17.5732 12.7981 16.2071C13.8098 14.8411 14.2216 13.1541 14.2216 12.2206C14.2216 10.593 13.1968 8.49763 11.7842 6.49087C10.5303 4.70935 9.03639 3.04271 7.77051 1.67092ZM13.1106 11.3317C14.4438 13.1096 11.7773 18.2212 7.99967 17.3322C11.3329 15.7765 12.6661 11.3317 13.1106 11.3317Z" fill="white"/>
</svg>
