<svg width="18" height="18" viewBox="0 0 18 18" fill="none" xmlns="http://www.w3.org/2000/svg">
<path d="M17.0216 6.97759L16.3682 6.21215C16.1628 5.96946 16.0508 5.68942 16.0321 5.39071L15.9388 4.36391C15.8268 2.94506 14.7253 1.84358 13.3251 1.75023L12.317 1.67555C12.0183 1.65689 11.7195 1.5262 11.4955 1.33951L10.7301 0.686091C9.64728 -0.228697 8.09774 -0.228697 7.01493 0.686091L6.24949 1.33951C6.00679 1.54487 5.72676 1.65689 5.42805 1.67555L4.38258 1.73156C2.96373 1.84358 1.86225 2.94506 1.75023 4.34524L1.67555 5.35337C1.65689 5.65208 1.5262 5.95079 1.33951 6.17482L0.686091 6.94025C-0.228697 8.02306 -0.228697 9.5726 0.686091 10.6554L1.33951 11.4208C1.54487 11.6635 1.65689 11.9436 1.67555 12.2423L1.75023 13.3064C1.86225 14.7253 2.96373 15.8268 4.36391 15.9201L5.37204 15.9948C5.67075 16.0135 5.96946 16.1441 6.19349 16.3308L6.95892 16.9842C7.50033 17.451 8.15374 17.675 8.80717 17.675C9.46058 17.675 10.1327 17.451 10.6554 16.9842L11.4208 16.3308C11.6635 16.1255 11.9436 16.0135 12.2423 15.9948L13.2504 15.9201C14.6693 15.8081 15.7708 14.7066 15.8828 13.3064L15.9574 12.2983C15.9761 11.9996 16.1068 11.7009 16.2935 11.4769L16.9469 10.7114C17.9364 9.60994 17.9364 8.04173 17.0216 6.97759ZM15.9574 9.75929L15.304 10.5247C14.912 10.9915 14.6693 11.5515 14.6319 12.1676L14.5573 13.1757C14.5013 13.8852 13.9412 14.4452 13.2318 14.5013L12.2236 14.5759C11.6262 14.6319 11.0475 14.856 10.5807 15.248L9.77796 15.9388C9.23656 16.4055 8.43378 16.4055 7.89238 15.9388L7.12694 15.2854C6.66021 14.8933 6.10014 14.6506 5.48406 14.6133L4.47593 14.5386C3.7665 14.4826 3.20642 13.9225 3.15042 13.2131L3.07574 12.2049C3.01973 11.6075 2.7957 11.0288 2.40365 10.5621L1.73156 9.75929C1.26483 9.21789 1.26483 8.41511 1.73156 7.87371L2.38498 7.10827C2.77703 6.64154 3.01973 6.08147 3.05707 5.46539L3.13175 4.45726C3.18775 3.74783 3.74783 3.18775 4.45726 3.13175L5.46539 3.05707C6.0628 3.00106 6.64155 2.77703 7.10827 2.38498L7.87371 1.73156C8.15374 1.50753 8.47112 1.37685 8.80717 1.37685C9.14321 1.37685 9.47925 1.48886 9.74062 1.73156L10.5061 2.38498C10.9728 2.77703 11.5329 3.01973 12.1489 3.05707L13.1571 3.13175C13.8665 3.18775 14.4266 3.74783 14.4826 4.45726L14.5573 5.46539C14.6133 6.0628 14.8373 6.64154 15.2293 7.10827L15.8828 7.87371C16.4242 8.43378 16.4242 9.21789 15.9574 9.75929Z" fill="white"/>
<path d="M9.16169 8.2293H8.50827C8.0042 8.2293 7.61215 7.79991 7.66816 7.29585C7.7055 6.84779 8.11622 6.53041 8.56428 6.53041H9.31104C9.59108 6.53041 9.83378 6.73577 9.88978 6.99714C9.90845 7.07182 9.98313 7.12782 10.0578 7.12782H10.9166C11.0099 7.12782 11.1033 7.05315 11.0846 6.94113C10.9913 6.08235 10.3005 5.41026 9.42306 5.35426V4.49548C9.42306 4.40213 9.34838 4.32745 9.25503 4.32745H8.39625C8.30291 4.32745 8.22823 4.40213 8.22823 4.49548V5.35426C7.16409 5.50361 6.36132 6.45573 6.47333 7.57588C6.58535 8.64002 7.53747 9.40546 8.60161 9.40546H9.16169C9.66575 9.40546 10.0578 9.83485 10.0018 10.3389C9.96446 10.787 9.55374 11.1044 9.10568 11.1044H8.35892C8.07888 11.1044 7.83618 10.899 7.78017 10.6376C7.7615 10.5629 7.68683 10.5069 7.61215 10.5069H6.75337C6.66002 10.5069 6.56668 10.5816 6.58535 10.6936C6.67869 11.5524 7.36945 12.2245 8.2469 12.2805V13.1393C8.2469 13.2326 8.32158 13.3073 8.41492 13.3073H9.2737C9.36705 13.3073 9.44173 13.2326 9.44173 13.1393V12.2618C10.3565 12.1125 11.1033 11.4031 11.1966 10.4509C11.3086 9.25611 10.3565 8.2293 9.16169 8.2293Z" fill="white"/>
</svg>
