<svg width="17" height="19" viewBox="0 0 17 19" fill="none" xmlns="http://www.w3.org/2000/svg">
<path d="M0 2.63892V18.4723C0 18.7639 0.236234 19.0001 0.52778 19.0001H10.0278C10.3194 19.0001 10.5556 18.7639 10.5556 18.4723V10.5556H11.6112C12.1932 10.5556 12.6667 11.0291 12.6667 11.6112V15.8334C12.6667 16.9975 13.6138 17.9445 14.7778 17.9445C15.9419 17.9445 16.889 16.9975 16.889 15.8334V5.27782C16.889 4.81738 16.7433 4.37954 16.4676 4.01199L13.6167 0.211131C13.4417 -0.0221476 13.1111 -0.0692256 12.8778 0.105575C12.6448 0.280376 12.5973 0.611399 12.7723 0.844467L14.5264 3.18316C13.4806 3.30793 12.6667 4.19904 12.6667 5.27782C12.6667 6.44189 13.6138 7.38894 14.7778 7.38894C15.1625 7.38894 15.5224 7.2838 15.8334 7.1033V15.8334C15.8334 16.4154 15.3599 16.889 14.7778 16.889C14.1958 16.889 13.7223 16.4154 13.7223 15.8334V11.6112C13.7223 10.4471 12.7752 9.50006 11.6112 9.50006H10.5556V2.63892C10.5556 1.18372 9.37189 1.91529e-05 7.9167 1.91529e-05H2.6389C1.1837 1.91529e-05 0 1.18372 0 2.63892ZM14.7778 6.33338C14.1958 6.33338 13.7223 5.85985 13.7223 5.27782C13.7223 4.69578 14.1958 4.22226 14.7778 4.22226C15.1133 4.22226 15.4215 4.37637 15.6231 4.64533C15.7606 4.82878 15.8334 5.04749 15.8334 5.27782C15.8334 5.85985 15.3599 6.33338 14.7778 6.33338ZM9.50004 2.63892V17.9445H1.05556V2.63892C1.05556 1.76576 1.76574 1.05558 2.6389 1.05558H7.9167C8.78986 1.05558 9.50004 1.76576 9.50004 2.63892Z" fill="white"/>
<path d="M2.11133 2.63816V6.8604C2.11133 7.15195 2.34756 7.38818 2.63911 7.38818H7.91691C8.20845 7.38818 8.44469 7.15195 8.44469 6.8604V2.63816C8.44469 2.34662 8.20845 2.11038 7.91691 2.11038H2.63911C2.34756 2.11038 2.11133 2.34662 2.11133 2.63816ZM3.16689 3.16594H7.38913V6.33262H3.16689V3.16594Z" fill="white"/>
<path d="M5.27903 10.0195C5.12049 10.0195 4.97018 10.0909 4.8699 10.2138C4.09259 11.1665 3.16602 12.5487 3.16602 13.7218C3.16602 14.8859 4.11306 15.8329 5.27713 15.8329C6.44121 15.8329 7.38825 14.8859 7.38825 13.7218C7.38825 12.4851 6.32319 10.993 5.68817 10.214C5.58789 10.0909 5.43779 10.0195 5.27903 10.0195ZM5.27713 14.7774C4.6951 14.7774 4.22158 14.3038 4.22158 13.7218C4.22158 13.1725 4.60897 12.3344 5.27819 11.4124C5.93813 12.3272 6.33269 13.1807 6.33269 13.7218C6.33269 14.3038 5.85917 14.7774 5.27713 14.7774Z" fill="white"/>
</svg>
