<svg width="69" height="82" viewBox="0 0 69 82" fill="none" xmlns="http://www.w3.org/2000/svg">
<path d="M12.7 0C24.6 0 36.9 0 49 0C49.7 0.2 50.2 0.499997 51.1 0.699997C53.9 1.9 54.9 4.2 54.9 7.3C54.9 21.3 54.9 35.3 54.9 49.3C54.9 50 54.7 50.9 54.9 51C55.1 51.2 55.9 51 56.6 51C59.4 51.2 61.1 53.1 61.6 55.7C61.8 56.9 61.6 58.1 61.6 59.7C61.6 60.7 62.3 61.4 63.3 61.4C64 61.4 64.9 60.7 65 59.8C65 59.6 65 59.3 65 59.1C65 50.1 65 41.1 65 31.8C65 31.1 64.8 30.6 64 30.6C61.1 30.4 58.5 27.7 58.3 24.5C58.1 22.4 58.3 20.7 58.3 18.8C58.3 18.1 58.5 17.6 59 17.1C60.6 15.5 62.3 13.8 63.7 12.4C64.2 11.9 64.2 11.7 63.7 11.2C62.1 9.6 60.8 8.3 59 6.7C58.8 6.5 58.5 6.2 58.5 6C58 5.3 58 4.39999 58.5 3.89999C59 3.39999 59.7 3.19999 60.2 3.39999C60.7 3.59999 60.9 3.89999 61.2 4.09999C63.3 6.19999 65.2 8.1 67.3 9.8C68 10.5 68.3 11.4 68.3 12.2C68.3 27.8 68.3 43 68.3 58.4C68.3 58.9 68.3 59.1 68.3 59.6C68.1 62 66.1 64.1 63.3 64.1C60.9 64.1 58.6 62.4 58.1 59.6C57.9 58.4 58.1 56.8 58.1 55.6C58.1 54.6 57.6 53.9 56.4 53.9C56.2 53.9 55.7 53.9 55.4 53.9C54.9 53.9 54.7 54.1 54.7 54.6C54.7 58.6 54.7 62.6 54.7 66.9C54.7 67.4 54.7 67.6 55.4 67.6C58.3 67.8 61.1 70.5 61.5 73.7C61.7 75.4 61.5 77.5 61.5 79.2C61.5 80.4 60.8 81.3 59.4 81.3C40.4 81.3 21.2 81.3 2.1 81.3C0.9 81.3 0 80.6 0 79.2C0 77.6 0 76.3 0 74.7C0 70.7 2.4 68.1 6.2 67.8C6.7 67.8 6.7 67.6 6.7 67.3C6.7 67.1 6.7 67.1 6.7 66.8C6.7 46.7 6.7 27 6.7 7.09999C6.8 3.49999 9 0.7 12.7 0ZM30.7 30.8C35.7 30.8 40.4 30.8 45.4 30.8C47.1 30.8 47.6 30.3 47.6 28.6C47.6 22 47.6 15.8 47.6 9.39999C47.6 7.69999 47.1 7.2 45.4 7.2C35.7 7.2 25.7 7.2 15.8 7.2C14.1 7.2 13.6 7.69999 13.6 9.39999C13.6 16 13.6 22.4 13.6 28.6C13.6 30.3 14.1 30.8 15.8 30.8C20.8 30.8 25.8 30.8 30.7 30.8Z" fill="white"/>
</svg>
