<svg width="19" height="19" viewBox="0 0 19 19" fill="none" xmlns="http://www.w3.org/2000/svg">
<path d="M9.69531 0.00189798C9.61449 -0.00477943 9.53319 0.00621053 9.45704 0.0341052C9.3809 0.0619998 9.31173 0.106131 9.25435 0.163435L0.524666 8.89203C-0.174889 9.59159 -0.174889 10.7422 0.524666 11.4417L7.56255 18.4753C8.26211 19.1748 9.4127 19.1748 10.1123 18.4753L18.8376 9.74993C18.8947 9.69246 18.9386 9.62325 18.9663 9.54711C18.994 9.47097 19.0048 9.38971 18.998 9.30898L18.2973 1.21454C18.2855 1.08401 18.2282 0.961772 18.1354 0.869198C18.0427 0.776623 17.9203 0.719597 17.7897 0.708087L9.69531 0.00189798ZM9.86012 1.13704L17.2244 1.77992L17.864 9.14416L9.31984 17.6872C9.04482 17.9622 8.62562 17.9622 8.3506 17.6872L1.31708 10.6493C1.04207 10.3743 1.04207 9.9551 1.31708 9.68008L9.86012 1.13704ZM14.357 2.5516C13.8189 2.5516 13.28 2.75441 12.8726 3.16174C12.0579 3.97642 12.0579 5.31808 12.8726 6.13276C13.6873 6.94744 15.0235 6.94744 15.8382 6.13276C16.6529 5.31808 16.6529 3.97642 15.8382 3.16174C15.4308 2.7544 14.8952 2.5516 14.357 2.5516ZM14.357 3.66382C14.6067 3.66382 14.8563 3.76039 15.0501 3.95416C15.4377 4.34172 15.4377 4.95279 15.0501 5.34034C14.6626 5.7279 14.0515 5.7279 13.6639 5.34034C13.2764 4.95279 13.2764 4.34172 13.6639 3.95416C13.8577 3.76037 14.1074 3.66382 14.357 3.66382ZM11.505 7.06707C11.3573 7.06709 11.2157 7.12556 11.111 7.22971L10.6274 7.71324C10.3007 7.41416 9.8571 7.31096 9.44863 7.36178C9.02233 7.41481 8.6123 7.62399 8.28075 7.95554C7.9492 8.2871 7.74329 8.69277 7.69026 9.11906C7.63722 9.54537 7.75313 10.0147 8.08319 10.3448L8.37134 10.633L8.66059 10.9222C8.71829 10.9799 8.75367 11.0631 8.7348 11.2147C8.71603 11.3664 8.62834 11.5635 8.46194 11.7299C8.29554 11.8963 8.0984 11.9839 7.94675 12.0028C7.7951 12.0216 7.71085 11.9863 7.65314 11.9285L7.4534 11.7299C7.445 11.7201 7.43626 11.7107 7.42719 11.7015L6.55183 10.8272C6.44712 10.7231 6.30546 10.6647 6.1578 10.6647C6.01014 10.6647 5.86848 10.7231 5.76378 10.8272C5.71173 10.8791 5.67044 10.9408 5.64227 11.0087C5.61409 11.0766 5.59959 11.1494 5.59959 11.2229C5.59959 11.2964 5.61409 11.3692 5.64227 11.4371C5.67044 11.505 5.71173 11.5666 5.76378 11.6186L6.24185 12.0988L5.7605 12.5802C5.70829 12.6321 5.66686 12.6938 5.63859 12.7618C5.61032 12.8298 5.59577 12.9027 5.59577 12.9764C5.59577 13.05 5.61032 13.1229 5.63859 13.1909C5.66686 13.2589 5.70829 13.3206 5.7605 13.3726C5.86521 13.4767 6.00687 13.5351 6.15453 13.5351C6.30219 13.5351 6.44384 13.4767 6.54855 13.3726L7.04736 12.8738C7.35408 13.0849 7.73167 13.1565 8.08318 13.1128C8.50948 13.0598 8.91842 12.8495 9.24997 12.5179C9.58153 12.1864 9.7907 11.7774 9.84374 11.3511C9.89677 10.9248 9.78196 10.4598 9.4519 10.1298L9.1823 9.86016C9.17628 9.85346 9.1701 9.84692 9.16376 9.84052L8.87014 9.55233C8.81243 9.49463 8.7814 9.41148 8.80028 9.25982C8.81906 9.10817 8.90674 8.90995 9.07315 8.74355C9.23955 8.57716 9.43231 8.49064 9.58397 8.47177C9.73562 8.45297 9.82315 8.48824 9.88085 8.54599L10.9789 9.6473C11.0308 9.69935 11.0925 9.74064 11.1604 9.76881C11.2283 9.79698 11.301 9.81149 11.3745 9.81149C11.4481 9.81149 11.5208 9.79698 11.5887 9.76881C11.6566 9.74064 11.7183 9.69935 11.7702 9.6473C11.8224 9.59537 11.8638 9.53363 11.8921 9.46564C11.9204 9.39764 11.9349 9.32473 11.9349 9.25109C11.9349 9.17745 11.9204 9.10454 11.8921 9.03655C11.8638 8.96855 11.8224 8.90682 11.7702 8.85488L11.4177 8.50233L11.899 8.02208C11.9512 7.97015 11.9926 7.90841 12.0209 7.84042C12.0492 7.77242 12.0637 7.69951 12.0637 7.62587C12.0637 7.55223 12.0492 7.47932 12.0209 7.41133C11.9926 7.34333 11.9512 7.28159 11.899 7.22966C11.7943 7.12552 11.6527 7.06709 11.505 7.06707Z" fill="white"/>
</svg>
