<svg width="46" height="46" viewBox="0 0 46 46" fill="none" xmlns="http://www.w3.org/2000/svg">
<path d="M22.0683 0C23.0867 0.678132 24.0485 1.58232 24.9538 2.4865C27.2169 4.46439 29.5366 6.44227 31.7998 8.30713C32.4221 8.70271 32.4787 9.32432 32.4221 9.88943C32.309 10.5111 31.7432 10.7936 31.0077 10.7936C29.8195 10.7936 28.7445 10.7936 27.5564 10.7936C27.2735 10.7936 27.1603 10.9066 27.1603 11.1892C27.1603 12.3759 27.1603 13.6757 27.1603 14.7494C27.1603 15.032 27.0472 15.145 26.7643 15.371C22.5209 17.8575 19.7486 21.5307 19.1262 26.5602C18.4473 32.6069 21.3894 38.4275 26.7643 41.3096C27.0472 41.4226 27.0472 41.5921 27.0472 41.9312C27.0472 42.8354 27.0472 43.5135 27.0472 44.4177C27.0472 45.4349 26.4248 46 25.463 46C22.5775 46 19.6354 46 16.7499 46C16.3539 46 16.3539 45.887 16.3539 45.6044C16.3539 34.1327 16.3539 22.8305 16.3539 11.4718C16.3539 11.0762 16.2407 10.8501 15.7315 10.8501C14.5434 10.8501 13.4684 10.8501 12.2803 10.8501C11.6013 10.8501 11.0921 10.5676 10.8658 9.94595C10.7527 9.32432 10.8658 8.75922 11.2619 8.36364C14.2605 5.76414 17.4289 3.10811 20.371 0.56511C20.4841 0.452088 20.767 0.282566 20.9933 0.169543C21.5591 1.03407e-05 21.7288 0 22.0683 0Z" fill="white"/>
<path d="M0.0565785 30.7416C0.33947 30.0635 1.07499 29.7244 1.92366 29.7244C3.1118 29.7244 4.13021 29.7244 5.2052 29.7244C5.48809 29.7244 5.48809 29.8374 5.48809 30.007C5.48809 35.1495 5.48809 40.405 5.48809 45.6605C5.48809 45.9431 5.48809 45.9431 5.2052 45.9431C3.9039 45.9431 2.71576 45.9431 1.41446 45.9431C0.735517 45.9431 0.226313 45.5475 0 44.9259C0.0565783 40.1789 0.0565785 35.432 0.0565785 30.7416Z" fill="white"/>
<path d="M33.8362 40.4623C27.1034 40.4623 21.6719 35.0373 21.6719 28.3125C21.6719 21.5876 27.1034 16.1626 33.8362 16.3321C40.569 16.3321 46.0005 21.7572 46.0005 28.482C46.0005 35.0373 40.3993 40.4623 33.8362 40.4623ZM35.1375 20.966C35.1375 20.6835 35.1375 20.3444 35.1375 20.2879C35.1375 19.3837 34.5151 18.8751 33.8362 18.8751C33.1573 18.8751 32.5349 19.4967 32.5349 20.2879C32.5349 20.6835 32.5349 21.1921 32.5349 21.5876C32.5349 21.7007 32.5349 21.8702 32.252 21.8702C30.3849 22.7744 29.5928 24.4697 29.7626 26.4476C30.0455 28.3124 31.7428 29.6122 33.6099 29.6122C34.2322 29.6122 34.798 29.8948 34.9112 30.5164C35.0243 31.138 35.0243 31.7031 34.6283 31.9291C34.2322 32.3247 33.6099 32.3247 33.0441 32.0422C32.6481 31.9292 32.3652 31.4206 31.856 31.138C31.2336 30.5164 30.4415 30.5164 29.9889 31.025C29.3665 31.6466 29.3665 32.3247 29.9889 32.8898C30.2718 33.2854 30.6678 33.568 31.177 33.907C31.5731 34.1896 32.1954 34.1896 32.3652 34.5852C32.5915 34.9808 32.3652 35.6024 32.3652 35.998C32.3652 36.6761 32.9875 37.2977 33.6665 37.2977C34.3454 37.2977 34.9678 36.6761 34.9678 35.998C34.9678 35.6024 34.9678 35.3198 34.9678 34.8112C34.9678 34.5287 35.0809 34.4156 35.3638 34.1896C37.2309 33.2854 38.2493 31.025 37.3441 29.0471C36.6651 27.4648 35.477 26.5606 33.5533 26.4476C32.9309 26.4476 32.5349 26.165 32.252 25.5434C32.1389 25.1478 32.1389 24.5262 32.5349 24.1306C32.931 23.7351 33.5533 23.7351 34.1191 23.8481C34.402 23.9611 34.7415 24.2436 35.0243 24.4697C35.6467 24.8653 36.4388 24.8653 36.8914 24.3567C37.5138 23.7351 37.2875 23.0569 36.8914 22.4918C36.6085 22.2092 36.2125 21.8137 35.7033 21.5876C35.1941 21.9832 34.9112 21.5876 35.1375 20.966Z" fill="white"/>
<path d="M13.6367 32.4369C13.6367 36.6752 13.6367 41.1396 13.6367 45.4909C13.6367 45.8865 13.6367 45.8865 13.2406 45.8865C11.6564 45.8865 10.242 45.8865 8.65776 45.8865C8.37487 45.8865 8.26172 45.8865 8.26172 45.604C8.26172 37.1838 8.26172 28.6506 8.26172 20.4565C8.26172 19.5524 8.88408 19.0438 9.67618 19.0438C10.8643 19.0438 11.9393 19.0438 13.2406 19.0438C13.5235 19.0438 13.6367 19.1568 13.6367 19.4393C13.6367 23.7342 13.6367 28.1986 13.6367 32.4369Z" fill="white"/>
</svg>
