<svg width="82" height="82" viewBox="0 0 82 82" fill="none" xmlns="http://www.w3.org/2000/svg">
<path d="M23.8 81.2L0 57.4V23.8L23.8 0H57.5L81.3 23.8V57.4L57.5 81.2H23.8Z" fill="white"/>
<path d="M40.7008 63.0008C39.1008 63.0008 37.8008 62.5008 36.8008 61.6008C35.8008 60.7008 35.3008 59.5007 35.3008 58.2007C35.3008 56.8007 35.8008 55.6007 36.8008 54.7007C37.8008 53.8007 39.1008 53.4008 40.7008 53.4008C42.3008 53.4008 43.5008 53.9008 44.5008 54.8008C45.5008 55.7008 46.0008 56.9007 46.0008 58.2007C46.0008 59.6007 45.5008 60.8007 44.5008 61.7007C43.6008 62.5007 42.3008 63.0008 40.7008 63.0008ZM45.5008 20.3008L44.4008 49.2007H36.9008L35.8008 20.3008H45.5008Z" fill="#F91939"/>
</svg>
