<svg width="30" height="31" viewBox="0 0 30 31" fill="none" xmlns="http://www.w3.org/2000/svg">
<path d="M26.5701 15.5C26.5701 15.1435 26.5547 14.8025 26.5239 14.446L29.3933 12.2605C30.0103 11.7955 30.18 10.9275 29.7944 10.2455L26.9095 5.239C26.7246 4.91069 26.4254 4.66262 26.0694 4.54246C25.7135 4.4223 25.3259 4.43852 24.9812 4.588L21.6644 5.9985C21.0936 5.5955 20.492 5.239 19.8595 4.9445L19.4121 1.364C19.3195 0.589 18.6562 0 17.8848 0H12.1306C11.3438 0 10.6805 0.589 10.5879 1.364L10.1405 4.9445C9.50804 5.239 8.90639 5.5955 8.33559 5.9985L5.01882 4.588C4.30918 4.278 3.47613 4.557 3.09046 5.239L0.205637 10.261C-0.180035 10.943 -0.0103392 11.7955 0.606735 12.276L3.47613 14.4615C3.41218 15.1575 3.41218 15.858 3.47613 16.554L0.606735 18.7395C-0.0103392 19.2045 -0.180035 20.0725 0.205637 20.7545L3.09046 25.761C3.47613 26.443 4.30918 26.722 5.01882 26.412L8.33559 25.0015C8.90639 25.4045 9.50804 25.761 10.1405 26.0555L10.5879 29.636C10.6805 30.411 11.3438 31 12.1152 31H17.8694C18.6407 31 19.3041 30.411 19.3967 29.636L19.844 26.0555C20.4765 25.761 21.0782 25.4045 21.649 25.0015L24.9658 26.412C25.6754 26.722 26.5084 26.443 26.8941 25.761L29.7789 20.7545C30.1646 20.0725 29.9949 19.22 29.3778 18.7395L26.5084 16.554C26.5547 16.1975 26.5701 15.8565 26.5701 15.5ZM15.0617 20.925C12.0843 20.925 9.6623 18.4915 9.6623 15.5C9.6623 12.5085 12.0843 10.075 15.0617 10.075C18.0391 10.075 20.4611 12.5085 20.4611 15.5C20.4611 18.4915 18.0391 20.925 15.0617 20.925Z" fill="#8E8E8E"/>
</svg>
